<svg id="Layer_1" data-name="Layer 1" xmlns="http://www.w3.org/2000/svg" viewBox="0 0 400.33 370.09"><defs><style>.cls-1{fill:#383009;}.cls-2{fill:#120f00;}</style></defs><title>rock</title><path class="cls-1" d="M154,385c6,1-33.88-3.79-54.82-15.84-9.19-5.29-17.55-11.89-25.87-18.47L32.22,318.22C25.58,313,18.87,307.65,13.7,301,7,292.26,3.18,281.59,1.39,270.75-1.48,253.33.62,235.5,3,218,10.64,160.92,22.15,101.48,58.4,56.73c7.53-9.3,16.23-17.95,26.92-23.32,8-4,16.89-6.08,25.69-7.9a357.32,357.32,0,0,1,48.45-7.14c11.06-.75,22.48-.69,32.82,3.3,8.17,3.14,15.24,8.58,23,12.65C240.61,47.61,271,45.46,298.83,52.16c56,13.47,99.66,67.18,101.43,124.74,1,31.71-9.39,62.59-20.49,92.3-5.37,14.36-11.14,29-21.35,40.41-15.35,17.2-38.56,24.87-61,30.2S251.61,349.07,232,361.2c-11,6.83-20.49,16.06-31.81,22.41S168,388,165,387,148,384,154,385Z" transform="translate(0 -18)"/><path class="cls-2" d="M311.52,132.05c13,9.69,15.75,27.08,18.31,42,.85,5,1.75,9.9,3.05,14.77a1.5,1.5,0,0,0,2.89-.8c-4.37-16.42-4.22-34.57-13.94-49.17a37.58,37.58,0,0,0-8.79-9.35c-1.55-1.15-3.05,1.45-1.52,2.59Z" transform="translate(0 -18)"/><path class="cls-2" d="M102,157.7A95.9,95.9,0,0,1,136.4,96.78,90.18,90.18,0,0,1,153.3,85.9c1.72-.87.21-3.45-1.52-2.59-22,11-39.2,30.72-47.72,53.72a92.66,92.66,0,0,0-5,19.87,1.56,1.56,0,0,0,1.05,1.85A1.51,1.51,0,0,0,102,157.7Z" transform="translate(0 -18)"/><path class="cls-2" d="M97.23,279.43A95.21,95.21,0,0,0,122.7,311a117.87,117.87,0,0,0,38.49,20.48A147.14,147.14,0,0,0,186.07,337a1.55,1.55,0,0,0,1.84-1,1.49,1.49,0,0,0-1-1.84c-28.23-3.86-55.84-15.63-74.71-37.55a88.61,88.61,0,0,1-12.34-18.67c-.85-1.73-3.44-.22-2.59,1.51Z" transform="translate(0 -18)"/><path class="cls-2" d="M64.23,194.42a106.25,106.25,0,0,0,0,16.64,1.5,1.5,0,0,0,3,0,106.25,106.25,0,0,1,0-16.64,1.51,1.51,0,0,0-1.5-1.5,1.53,1.53,0,0,0-1.5,1.5Z" transform="translate(0 -18)"/><path class="cls-2" d="M272.46,269.71c10.84,5,22.3,9.72,34.41,9.82,5.66.05,11.7-.83,16.59-3.84a26.64,26.64,0,0,0,9.18-10.21,75.45,75.45,0,0,0,5.71-15.13,1.5,1.5,0,0,0-2.89-.8c-2.35,8.06-5.09,17.43-12.19,22.65-4.31,3.18-9.76,4.2-15,4.32a54.09,54.09,0,0,1-16.37-2.4,128.94,128.94,0,0,1-17.9-7c-1.75-.8-3.27,1.79-1.52,2.59Z" transform="translate(0 -18)"/><path class="cls-2" d="M177.93,225.79a72.4,72.4,0,0,0,26.32,2.36c1.91-.18,1.93-3.18,0-3a69.85,69.85,0,0,1-25.53-2.26,1.5,1.5,0,0,0-.79,2.9Z" transform="translate(0 -18)"/></svg>