<?xml version="1.0" ?><!DOCTYPE svg  PUBLIC '-//W3C//DTD SVG 1.1//EN'  'http://www.w3.org/Graphics/SVG/1.1/DTD/svg11.dtd'><svg enable-background="new 0 0 512 512" height="512px" id="Layer_1" version="1.1" viewBox="0 0 512 512" width="512px" xml:space="preserve" xmlns="http://www.w3.org/2000/svg" xmlns:xlink="http://www.w3.org/1999/xlink"><path d="M198,387h-61.218h0c-0.221,0,0.221,0,0,0  C91.805,387,56,350.337,56,305.36c0-44.977,36.456-81.537,81.433-81.537c3.922,0,7.778,0.222,11.557,0.769  c13.941-56.938,65.316-99.218,126.554-99.218c71.961,0,130.293,58.319,130.293,130.28c0,10.593-1.264,20.879-3.661,30.743  c1.212-0.091,2.423-0.03,3.661-0.03c27.7,0,50.163,22.563,50.163,50.263S433.537,387,405.837,387H356" fill="none" stroke="#000000" stroke-miterlimit="10" stroke-width="30"/><g><line fill="none" stroke="#000000" stroke-miterlimit="10" stroke-width="30" x1="220" x2="220" y1="411" y2="500"/><line fill="none" stroke="#000000" stroke-miterlimit="10" stroke-width="30" x1="181.642" x2="258.622" y1="477.678" y2="433.234"/><line fill="none" stroke="#000000" stroke-miterlimit="10" stroke-width="30" x1="258.622" x2="181.642" y1="477.678" y2="433.234"/></g><g><line fill="none" stroke="#000000" stroke-miterlimit="10" stroke-width="30" x1="330" x2="330" y1="411" y2="500"/><line fill="none" stroke="#000000" stroke-miterlimit="10" stroke-width="30" x1="291.642" x2="368.622" y1="477.678" y2="433.234"/><line fill="none" stroke="#000000" stroke-miterlimit="10" stroke-width="30" x1="368.622" x2="291.642" y1="477.678" y2="433.234"/></g><g><line fill="none" stroke="#000000" stroke-miterlimit="10" stroke-width="30" x1="276" x2="276" y1="317" y2="406"/><line fill="none" stroke="#000000" stroke-miterlimit="10" stroke-width="30" x1="237.642" x2="314.622" y1="383.678" y2="339.234"/><line fill="none" stroke="#000000" stroke-miterlimit="10" stroke-width="30" x1="314.622" x2="237.642" y1="383.678" y2="339.234"/></g></svg>